<?xml version="1.0" standalone="no"?>
<!DOCTYPE svg PUBLIC "-//W3C//DTD SVG 20010904//EN"
 "http://www.w3.org/TR/2001/REC-SVG-20010904/DTD/svg10.dtd">
<svg version="1.0" xmlns="http://www.w3.org/2000/svg"
 width="360.000000pt" height="360.000000pt" viewBox="0 0 360.000000 360.000000"
 preserveAspectRatio="xMidYMid meet">

<g transform="translate(0.000000,360.000000) scale(0.100000,-0.100000)"
fill="white" stroke="none">
<path d="M680 2802 c-27 -22 -29 -65 -5 -92 17 -19 32 -20 225 -20 l208 0 11
-77 c7 -43 36 -247 67 -453 30 -206 61 -417 69 -467 20 -127 20 -128 -17 -144
-49 -20 -116 -86 -139 -138 -43 -95 -19 -229 54 -299 68 -65 107 -77 266 -80
l144 -4 -37 -29 c-20 -17 -48 -52 -64 -77 -22 -39 -27 -59 -27 -112 1 -183
183 -295 346 -212 162 82 183 285 42 401 l-38 31 345 0 345 -1 -38 -31 c-85
-69 -114 -197 -66 -293 88 -177 345 -178 436 -2 44 86 21 208 -53 276 -24 23
-44 44 -44 46 0 3 74 5 164 5 l165 0 20 27 c23 28 21 54 -7 86 -14 16 -69 17
-875 17 -782 0 -862 2 -894 17 -49 23 -73 66 -73 132 0 49 3 57 39 92 l39 39
203 2 c112 0 468 2 791 2 574 1 588 1 607 21 16 17 34 104 100 499 45 263 81
493 81 511 0 69 61 65 -893 67 -474 1 -873 2 -887 2 -24 1 -26 5 -46 125 -15
93 -25 127 -39 137 -15 11 -71 14 -261 14 -218 0 -244 -2 -264 -18z m2250
-399 c0 -5 -9 -60 -20 -123 -86 -511 -111 -658 -112 -677 l-2 -23 -688 0
c-378 0 -691 0 -695 0 -8 -1 -25 104 -88 540 -19 135 -37 255 -39 268 l-3 22
823 0 c453 0 824 -3 824 -7z m-1180 -1508 c11 -10 24 -33 29 -51 28 -103 -75
-180 -166 -124 -62 38 -63 140 -2 184 30 22 111 17 139 -9z m912 -4 c29 -26
33 -35 33 -80 0 -63 -31 -100 -92 -108 -95 -13 -156 84 -106 167 34 58 113 68
165 21z"/>
</g>
</svg>
