<svg width="24" height="18" viewBox="0 0 24 18" fill="none" xmlns="http://www.w3.org/2000/svg">
<path id="Vector" d="M23.5916 2.42724L8.82671 17.5821C8.69811 17.7146 8.5453 17.8197 8.37705 17.8914C8.2088 17.9631 8.02841 18 7.84623 18C7.66405 18 7.48366 17.9631 7.31541 17.8914C7.14715 17.8197 6.99435 17.7146 6.86575 17.5821L0.406127 10.9519C0.277369 10.8197 0.175233 10.6628 0.105549 10.4901C0.0358656 10.3175 1.91865e-09 10.1324 0 9.94548C-1.91865e-09 9.75858 0.0358656 9.57351 0.105549 9.40084C0.175233 9.22816 0.277369 9.07127 0.406127 8.93911C0.534886 8.80695 0.687744 8.70211 0.855975 8.63059C1.02421 8.55906 1.20451 8.52225 1.38661 8.52225C1.5687 8.52225 1.74901 8.55906 1.91724 8.63059C2.08547 8.70211 2.23833 8.80695 2.36708 8.93911L7.84738 14.5642L21.6329 0.416855C21.893 0.149947 22.2456 0 22.6134 0C22.9811 0 23.3338 0.149947 23.5939 0.416855C23.8539 0.683763 24 1.04577 24 1.42323C24 1.8007 23.8539 2.1627 23.5939 2.42961L23.5916 2.42724Z" fill="#BD151D"/>
</svg>
