<svg width="70" height="60" viewBox="0 0 70 60" fill="none" xmlns="http://www.w3.org/2000/svg">
<g id="Group">
<path id="Vector" d="M27.6183 43.6477C27.344 43.6477 27.0786 43.5526 26.8701 43.3795L19.3918 37.1932C19.2644 37.0878 19.162 36.9568 19.0919 36.8092C19.0217 36.6616 18.9853 36.5009 18.9853 36.3383C18.9853 36.1757 19.0217 36.0151 19.0919 35.8675C19.162 35.7199 19.2644 35.5888 19.3918 35.4834L26.8701 29.2972C27.1034 29.1041 27.4061 29.0089 27.7115 29.0326C28.017 29.0563 28.3003 29.197 28.4991 29.4236C28.9125 29.8961 28.8544 30.6045 28.3682 31.0061L21.9237 36.338L28.3682 41.6697C28.5484 41.8187 28.6772 42.0177 28.7373 42.2401C28.7973 42.4624 28.7856 42.6973 28.7038 42.913C28.622 43.1287 28.4741 43.3148 28.2799 43.4462C28.0857 43.5776 27.8549 43.6479 27.6183 43.6477ZM42.381 43.6477C42.0542 43.6477 41.7293 43.5136 41.5009 43.2523C41.3022 43.0256 41.2043 42.7316 41.2287 42.4348C41.2532 42.138 41.3979 41.8628 41.6312 41.6697L48.0756 36.338L41.6312 31.0061C41.4062 30.8108 41.2688 30.5378 41.2483 30.2453C41.2278 29.9529 41.3258 29.6642 41.5214 29.4411C41.717 29.2179 41.9947 29.0779 42.2951 29.051C42.5956 29.0241 42.8949 29.1124 43.1293 29.297L50.6075 35.4833C50.735 35.5887 50.8373 35.7197 50.9075 35.8673C50.9777 36.0149 51.014 36.1756 51.014 36.3382C51.014 36.5008 50.9777 36.6614 50.9075 36.809C50.8373 36.9566 50.735 37.0876 50.6075 37.193L43.1293 43.3793C42.9208 43.5525 42.6555 43.6477 42.3812 43.6477H42.381ZM32.3524 48.2878C32.1803 48.288 32.0102 48.2508 31.8548 48.179C31.6993 48.1072 31.5623 48.0026 31.4538 47.8728C31.3452 47.743 31.2679 47.5913 31.2274 47.4287C31.187 47.2662 31.1844 47.0969 31.2198 46.9333L35.8805 25.4351C35.9437 25.1437 36.1234 24.8887 36.3802 24.726C36.637 24.5634 36.9497 24.5066 37.2497 24.568C37.5496 24.6294 37.8121 24.804 37.9795 25.0535C38.1469 25.3029 38.2055 25.6068 38.1423 25.8982L33.4816 47.3962C33.4271 47.648 33.2851 47.874 33.0796 48.0363C32.874 48.1986 32.6173 48.2874 32.3524 48.2878Z" fill="url(#paint0_linear_100_3264)"/>
<path id="Vector_2" d="M62.2406 60H7.75943C3.48118 60 0 56.6186 0 52.4616V7.53837C0 3.382 3.48118 0 7.75943 0H62.2406C66.5188 0 70 3.382 70 7.53837V52.4616C70 56.6186 66.5188 60 62.2406 60ZM7.75943 2.24547C4.75554 2.24547 2.31132 4.62006 2.31132 7.53837V52.4616C2.31132 55.3799 4.75554 57.7545 7.75943 57.7545H62.2406C65.2445 57.7545 67.6887 55.3799 67.6887 52.4616V7.53837C67.6887 4.62006 65.2445 2.24547 62.2406 2.24547H7.75943Z" fill="url(#paint1_linear_100_3264)"/>
<path id="Vector_3" d="M68.8444 17.9781H1.15573C0.852613 17.9732 0.563643 17.8527 0.351095 17.6427C0.138548 17.4327 0.0194397 17.1499 0.0194397 16.8554C0.0194397 16.5609 0.138548 16.2782 0.351095 16.0681C0.563643 15.8581 0.852613 15.7376 1.15573 15.7327H68.8444C69.1475 15.7376 69.4365 15.8581 69.649 16.0681C69.8616 16.2782 69.9807 16.5609 69.9807 16.8554C69.9807 17.1499 69.8616 17.4327 69.649 17.6427C69.4365 17.8527 69.1475 17.9732 68.8444 17.9781ZM19.7457 12.6057C17.7297 12.6057 16.0883 11.0111 16.0883 9.05255C16.0883 7.09354 17.7297 5.49957 19.7457 5.49957C21.7621 5.49957 23.4029 7.09354 23.4029 9.05255C23.4029 11.0111 21.7621 12.6057 19.7457 12.6057ZM19.7457 7.74504C19.0039 7.74504 18.3997 8.33143 18.3997 9.05255C18.3997 9.77367 19.0039 10.3602 19.7457 10.3602C20.4879 10.3602 21.0915 9.77383 21.0915 9.05255C21.0915 8.33127 20.4879 7.74504 19.7457 7.74504ZM8.50903 12.5712C6.49224 12.5712 4.8517 10.9772 4.8517 9.01823C4.8517 7.05905 6.49224 5.46509 8.50887 5.46509C10.5255 5.46509 12.166 7.05905 12.166 9.01823C12.166 10.9772 10.5257 12.5712 8.50903 12.5712ZM8.50903 7.71056C7.76726 7.71056 7.16302 8.29759 7.16302 9.01823C7.16302 9.73935 7.76726 10.3257 8.50887 10.3257C9.25113 10.3257 9.85472 9.73935 9.85472 9.01823C9.85472 8.29759 9.2513 7.71056 8.50903 7.71056ZM30.9823 12.6395C28.9665 12.6395 27.3258 11.0456 27.3258 9.08639C27.3258 7.12802 28.9664 5.53406 30.9823 5.53406C32.999 5.53406 34.6395 7.12786 34.6395 9.08639C34.6395 11.0456 32.999 12.6395 30.9823 12.6395ZM30.9823 7.77889C30.2407 7.77889 29.6371 8.36528 29.6371 9.08639C29.6371 9.80751 30.2407 10.3941 30.9823 10.3941C31.7246 10.3941 32.3282 9.80751 32.3282 9.08639C32.3282 8.36528 31.7246 7.77889 30.9823 7.77889Z" fill="url(#paint2_linear_100_3264)"/>
</g>
<defs>
<linearGradient id="paint0_linear_100_3264" x1="34.7679" y1="19.6182" x2="35.4046" y2="63.5736" gradientUnits="userSpaceOnUse">
<stop stop-color="#DD1C23"/>
<stop offset="0.48" stop-color="#CA1821"/>
<stop offset="1" stop-color="#A00F15"/>
</linearGradient>
<linearGradient id="paint1_linear_100_3264" x1="34.4933" y1="-12.4468" x2="36.3537" y2="98.6189" gradientUnits="userSpaceOnUse">
<stop stop-color="#DD1C23"/>
<stop offset="0.48" stop-color="#CA1821"/>
<stop offset="1" stop-color="#A00F15"/>
</linearGradient>
<linearGradient id="paint2_linear_100_3264" x1="34.4937" y1="2.86929" x2="34.5747" y2="26.0384" gradientUnits="userSpaceOnUse">
<stop stop-color="#DD1C23"/>
<stop offset="0.48" stop-color="#CA1821"/>
<stop offset="1" stop-color="#A00F15"/>
</linearGradient>
</defs>
</svg>
