<svg width="41" height="58" viewBox="0 0 41 58" fill="none" xmlns="http://www.w3.org/2000/svg">
<g id="Group">
<g id="User Experience">
<path id="Vector" d="M36.1765 40.0112V6.02941C36.1765 4.43031 35.5412 2.89671 34.4105 1.76597C33.2798 0.63524 31.7462 0 30.1471 0L6.02941 0C4.43031 0 2.89671 0.63524 1.76597 1.76597C0.63524 2.89671 0 4.43031 0 6.02941V51.8529C0 52.6447 0.155955 53.4288 0.458961 54.1603C0.761967 54.8918 1.20609 55.5565 1.76597 56.1164C2.32586 56.6763 2.99053 57.1204 3.72206 57.4234C4.45358 57.7264 5.23762 57.8824 6.02941 57.8824C21.5732 57.8824 20.91 58.0632 21.4165 57.4603C22.5018 56.1821 21.1391 55.6394 14.0003 49.5376C13.8641 49.4219 13.7589 49.274 13.6944 49.1073C13.6299 48.9406 13.608 48.7604 13.6308 48.5831C13.6535 48.4059 13.7202 48.2371 13.8247 48.0921C13.9293 47.9471 14.0684 47.8305 14.2294 47.7529C14.7721 47.4756 14.5671 47.5238 20.1141 49.3809C20.2958 49.4422 20.4895 49.4594 20.6791 49.4309C20.8687 49.4024 21.0488 49.3292 21.2044 49.2172C21.36 49.1052 21.4867 48.9577 21.5739 48.7869C21.6611 48.6161 21.7064 48.427 21.7059 48.2353V32.5588C21.7059 32.239 21.8329 31.9323 22.0591 31.7061C22.2852 31.48 22.5919 31.3529 22.9118 31.3529C23.2316 31.3529 23.5383 31.48 23.7645 31.7061C23.9906 31.9323 24.1176 32.239 24.1176 32.5588V45.8235C24.1176 46.1433 24.2447 46.4501 24.4708 46.6762C24.697 46.9024 25.0037 47.0294 25.3235 47.0294C25.6433 47.0294 25.9501 46.9024 26.1762 46.6762C26.4024 46.4501 26.5294 46.1433 26.5294 45.8235V41C26.5294 40.6802 26.6565 40.3735 26.8826 40.1473C27.1088 39.9212 27.4155 39.7941 27.7353 39.7941C28.0551 39.7941 28.3618 39.9212 28.588 40.1473C28.8141 40.3735 28.9412 40.6802 28.9412 41V45.8235C28.9412 46.1433 29.0682 46.4501 29.2944 46.6762C29.5205 46.9024 29.8272 47.0294 30.1471 47.0294C30.4669 47.0294 30.7736 46.9024 30.9997 46.6762C31.2259 46.4501 31.3529 46.1433 31.3529 45.8235V42.2059C31.3529 41.8861 31.48 41.5793 31.7061 41.3532C31.9323 41.127 32.239 41 32.5588 41C32.8786 41 33.1854 41.127 33.4115 41.3532C33.6377 41.5793 33.7647 41.8861 33.7647 42.2059V45.8235C33.7647 46.1433 33.8918 46.4501 34.1179 46.6762C34.344 46.9024 34.6508 47.0294 34.9706 47.0294C35.2904 47.0294 35.5971 46.9024 35.8233 46.6762C36.0494 46.4501 36.1765 46.1433 36.1765 45.8235V43.4118C36.1765 43.0919 36.3035 42.7852 36.5297 42.5591C36.7558 42.3329 37.0625 42.2059 37.3824 42.2059C37.7022 42.2059 38.0089 42.3329 38.235 42.5591C38.4612 42.7852 38.5882 43.0919 38.5882 43.4118V56.6765C38.5882 56.9963 38.7153 57.303 38.9414 57.5292C39.1676 57.7553 39.4743 57.8824 39.7941 57.8824C40.1139 57.8824 40.4207 57.7553 40.6468 57.5292C40.873 57.303 41 56.9963 41 56.6765V43.4118C40.9984 42.8339 40.8583 42.2648 40.5916 41.7521C40.3249 41.2395 39.9392 40.7982 39.4669 40.4652C38.9945 40.1322 38.4493 39.9172 37.8769 39.8382C37.3044 39.7592 36.7213 39.8185 36.1765 40.0112ZM2.41176 6.02941C2.41176 5.06995 2.79291 4.14979 3.47135 3.47135C4.14979 2.79291 5.06995 2.41176 6.02941 2.41176H30.1471C31.1065 2.41176 32.0267 2.79291 32.7051 3.47135C33.3836 4.14979 33.7647 5.06995 33.7647 6.02941V7.23529H2.41176V6.02941ZM17.2321 55.4706H6.02941C5.06995 55.4706 4.14979 55.0894 3.47135 54.411C2.79291 53.7326 2.41176 52.8124 2.41176 51.8529V50.6471H11.8056C12.1915 51.2379 11.9624 50.9726 17.2321 55.4706ZM30.7862 39.0706C30.3475 38.3803 29.6877 37.859 28.9147 37.5918C28.1416 37.3246 27.3008 37.3273 26.5294 37.5994V32.5588C26.5294 31.5994 26.1483 30.6792 25.4698 30.0008C24.7914 29.3223 23.8712 28.9412 22.9118 28.9412C21.9523 28.9412 21.0321 29.3223 20.3537 30.0008C19.6753 30.6792 19.2941 31.5994 19.2941 32.5588H8.44118C8.12136 32.5588 7.81464 32.6859 7.58849 32.912C7.36234 33.1382 7.23529 33.4449 7.23529 33.7647C7.23529 34.0845 7.36234 34.3912 7.58849 34.6174C7.81464 34.8435 8.12136 34.9706 8.44118 34.9706H19.2941V46.5591L15.8212 45.3532C15.3315 45.1905 14.8119 45.1385 14.2997 45.201C13.7875 45.2635 13.2956 45.439 12.8595 45.7147C12.4234 45.9905 12.0539 46.3596 11.7778 46.7955C11.5017 47.2314 11.3259 47.7232 11.2629 48.2353H2.41176V9.64706H33.7647V38.8053C33.2797 38.6257 32.7607 38.5564 32.2455 38.6022C31.7304 38.6481 31.2318 38.8081 30.7862 39.0706Z" fill="url(#paint0_linear_100_3315)"/>
<path id="Vector_2" d="M14.4708 14.4705V20.4999C14.4708 21.1396 14.2167 21.753 13.7644 22.2053C13.3121 22.6576 12.6986 22.9117 12.059 22.9117C11.4194 22.9117 10.8059 22.6576 10.3536 22.2053C9.90133 21.753 9.64724 21.1396 9.64724 20.4999V14.4705C9.64724 14.1507 9.52019 13.844 9.29404 13.6178C9.0679 13.3917 8.76118 13.2647 8.44136 13.2647C8.12154 13.2647 7.81482 13.3917 7.58867 13.6178C7.36252 13.844 7.23547 14.1507 7.23547 14.4705V20.4999C7.23547 21.7792 7.74367 23.0061 8.64825 23.9107C9.55284 24.8153 10.7797 25.3235 12.059 25.3235C13.3383 25.3235 14.5652 24.8153 15.4698 23.9107C16.3743 23.0061 16.8825 21.7792 16.8825 20.4999V14.4705C16.8825 14.1507 16.7555 13.844 16.5293 13.6178C16.3032 13.3917 15.9965 13.2647 15.6766 13.2647C15.3568 13.2647 15.0501 13.3917 14.824 13.6178C14.5978 13.844 14.4708 14.1507 14.4708 14.4705ZM26.7708 13.747L24.1178 17.2802L21.4649 13.747C21.273 13.4911 20.9873 13.322 20.6707 13.2768C20.3541 13.2315 20.0325 13.3139 19.7766 13.5058C19.5208 13.6977 19.3516 13.9834 19.3064 14.3C19.2612 14.6166 19.3436 14.9382 19.5355 15.1941L22.6105 19.2941L19.5355 23.3941C19.3436 23.6499 19.2612 23.9715 19.3064 24.2881C19.3516 24.6047 19.5208 24.8904 19.7766 25.0823C20.0325 25.2742 20.3541 25.3566 20.6707 25.3114C20.9873 25.2661 21.273 25.097 21.4649 24.8411L24.1178 21.3079L26.7708 24.8411C26.9627 25.097 27.2483 25.2661 27.5649 25.3114C27.8815 25.3566 28.2031 25.2742 28.459 25.0823C28.7149 24.8904 28.884 24.6047 28.9292 24.2881C28.9745 23.9715 28.8921 23.6499 28.7002 23.3941L25.6252 19.2941L28.7002 15.1941C28.8921 14.9382 28.9745 14.6166 28.9292 14.3C28.884 13.9834 28.7149 13.6977 28.459 13.5058C28.2031 13.3139 27.8815 13.2315 27.5649 13.2768C27.2483 13.322 26.9627 13.4911 26.7708 13.747ZM15.6766 27.7352H8.44136C8.12154 27.7352 7.81482 27.8623 7.58867 28.0884C7.36252 28.3146 7.23547 28.6213 7.23547 28.9411C7.23547 29.2609 7.36252 29.5677 7.58867 29.7938C7.81482 30.02 8.12154 30.147 8.44136 30.147H15.6766C15.9965 30.147 16.3032 30.02 16.5293 29.7938C16.7555 29.5677 16.8825 29.2609 16.8825 28.9411C16.8825 28.6213 16.7555 28.3146 16.5293 28.0884C16.3032 27.8623 15.9965 27.7352 15.6766 27.7352ZM8.44136 39.7941H13.2649C13.5847 39.7941 13.8914 39.667 14.1176 39.4409C14.3437 39.2147 14.4708 38.908 14.4708 38.5882C14.4708 38.2684 14.3437 37.9616 14.1176 37.7355C13.8914 37.5093 13.5847 37.3823 13.2649 37.3823H8.44136C8.12154 37.3823 7.81482 37.5093 7.58867 37.7355C7.36252 37.9616 7.23547 38.2684 7.23547 38.5882C7.23547 38.908 7.36252 39.2147 7.58867 39.4409C7.81482 39.667 8.12154 39.7941 8.44136 39.7941Z" fill="url(#paint1_linear_100_3315)"/>
</g>
</g>
<defs>
<linearGradient id="paint0_linear_100_3315" x1="20.5" y1="0" x2="20.5" y2="57.9078" gradientUnits="userSpaceOnUse">
<stop stop-color="#DD1C23"/>
<stop offset="0.505" stop-color="#CA1821"/>
<stop offset="0.955" stop-color="#A00F15"/>
</linearGradient>
<linearGradient id="paint1_linear_100_3315" x1="18.0884" y1="13.2646" x2="18.0884" y2="39.7941" gradientUnits="userSpaceOnUse">
<stop stop-color="#DD1C23"/>
<stop offset="0.505" stop-color="#CA1821"/>
<stop offset="0.955" stop-color="#A00F15"/>
</linearGradient>
</defs>
</svg>
