<svg width="60" height="59" viewBox="0 0 60 59" fill="none" xmlns="http://www.w3.org/2000/svg">
<g id="Group">
<path id="Vector" d="M58.5928 56.8668H56.1063V17.8568C56.1052 17.1687 55.8312 16.5093 55.3445 16.023C54.8578 15.5367 54.1981 15.2633 53.5101 15.2627H48.2432C47.5555 15.2638 46.8964 15.5375 46.4101 16.0237C45.9239 16.51 45.6502 17.1691 45.6491 17.8568V56.8668H42.0739V36.3806C42.073 35.6928 41.7995 35.0333 41.3132 34.5469C40.827 34.0604 40.1676 33.7866 39.4798 33.7855H34.2107C33.5227 33.7866 32.8632 34.0606 32.3769 34.5473C31.8906 35.034 31.6172 35.6937 31.6167 36.3817V56.8678H28.0414V28.8914C28.0406 28.2036 27.7671 27.5441 27.2808 27.0577C26.7945 26.5712 26.1352 26.2974 25.4474 26.2962H20.1772C19.4892 26.2974 18.8297 26.5713 18.3434 27.058C17.8571 27.5447 17.5837 28.2044 17.5832 28.8924V56.8668H14.009V44.5996C14.0084 43.9116 13.735 43.2519 13.2487 42.7652C12.7624 42.2785 12.103 42.0045 11.4149 42.0034H6.14692C5.45854 42.0039 4.79851 42.2777 4.31175 42.7644C3.825 43.2512 3.55129 43.9112 3.55072 44.5996V56.8668H1.06532C0.782782 56.8668 0.511813 56.979 0.312026 57.1788C0.112239 57.3786 0 57.6496 0 57.9321C0 58.2146 0.112239 58.4856 0.312026 58.6854C0.511813 58.8852 0.782782 58.9974 1.06532 58.9974C9.02329 58.9995 56.3087 59.0017 58.5928 58.9974C58.8753 58.9974 59.1463 58.8852 59.3461 58.6854C59.5459 58.4856 59.6581 58.2146 59.6581 57.9321C59.6581 57.6496 59.5459 57.3786 59.3461 57.1788C59.1463 56.979 58.8753 56.8668 58.5928 56.8668ZM5.68244 56.8668V44.5996C5.68272 44.4762 5.73186 44.3579 5.8191 44.2707C5.90635 44.1834 6.0246 44.1343 6.14798 44.134H11.4149C11.538 44.1346 11.6559 44.1839 11.7428 44.2711C11.8296 44.3584 11.8784 44.4765 11.8784 44.5996V56.8668H5.68244ZM19.7149 56.8668V28.8935C19.7149 28.7704 19.7636 28.6523 19.8505 28.5651C19.9373 28.4778 20.0552 28.4285 20.1783 28.428H25.4474C25.5705 28.4285 25.6883 28.4778 25.7752 28.5651C25.862 28.6523 25.9108 28.7704 25.9108 28.8935V56.8668H19.7149ZM33.7473 56.8668V36.3806C33.7476 36.2577 33.7965 36.1399 33.8833 36.0528C33.9701 35.9658 34.0878 35.9167 34.2107 35.9161H39.4798C39.6029 35.9167 39.7208 35.966 39.8076 36.0532C39.8945 36.1405 39.9432 36.2586 39.9432 36.3817V56.8678L33.7473 56.8668ZM47.7798 56.8668V17.8568C47.78 17.7339 47.829 17.6162 47.9158 17.5294C48.0026 17.4425 48.1204 17.3936 48.2432 17.3933H53.5112C53.6341 17.3936 53.7519 17.4425 53.839 17.5293C53.926 17.6161 53.9751 17.7338 53.9757 17.8568V56.8668H47.7798Z" fill="url(#paint0_linear_100_3296)"/>
<path id="Vector_2" d="M8.65128 26.746C9.33674 26.7415 10.0097 26.5622 10.6065 26.2249C11.2032 25.8876 11.704 25.4036 12.0614 24.8187C12.4188 24.2337 12.6209 23.5673 12.6487 22.8824C12.6765 22.1975 12.529 21.5168 12.2201 20.9048L20.5382 13.3304C21.3443 13.8386 22.305 14.0432 23.2482 13.9075C24.1915 13.7719 25.0556 13.3048 25.6858 12.59L32.7681 16.0619C32.6485 16.6879 32.6798 17.3335 32.8592 17.9451C33.0387 18.5567 33.3612 19.1167 33.8001 19.5789C34.239 20.0411 34.7817 20.3921 35.3832 20.603C35.9847 20.8138 36.6277 20.8784 37.2591 20.7913C37.8905 20.7043 38.4921 20.4681 39.0142 20.1024C39.5362 19.7367 39.9636 19.252 40.2611 18.6883C40.5586 18.1246 40.7175 17.4981 40.7248 16.8608C40.7322 16.2235 40.5876 15.5936 40.3031 15.0232L48.8363 7.40079C49.6536 7.93124 50.6355 8.14723 51.5999 8.0087C52.5643 7.87017 53.4457 7.38651 54.0806 6.64747C54.7154 5.90843 55.0607 4.96419 55.0522 3.98993C55.0438 3.01568 54.6823 2.07755 54.0347 1.34963C53.3871 0.6217 52.4974 0.153389 51.5308 0.0315857C50.5641 -0.0902177 49.5861 0.142756 48.7782 0.68728C47.9703 1.2318 47.3873 2.05091 47.1374 2.99262C46.8876 3.93433 46.9878 4.9347 47.4195 5.80814L38.8884 13.4305C38.0815 12.9142 37.1167 12.7033 36.168 12.836C35.2194 12.9686 34.3494 13.4361 33.7151 14.1539L26.6307 10.6809C26.7505 10.0535 26.7189 9.40652 26.5383 8.79378C26.3578 8.18104 26.0337 7.62024 25.5928 7.15796C25.152 6.69568 24.6072 6.34527 24.0038 6.13587C23.4003 5.92646 22.7556 5.8641 22.1231 5.95396C21.4907 6.04382 20.8889 6.2833 20.3676 6.65252C19.8463 7.02174 19.4207 7.51002 19.1261 8.0768C18.8315 8.64358 18.6764 9.27248 18.6737 9.91125C18.671 10.55 18.8208 11.1802 19.1106 11.7494L10.7883 19.3282C10.2611 18.9958 9.66384 18.7907 9.04371 18.729C8.42358 18.6672 7.79758 18.7506 7.2152 18.9724C6.63282 19.1942 6.11002 19.5485 5.68812 20.0072C5.26621 20.4658 4.95677 21.0163 4.78425 21.6152C4.61172 22.214 4.58085 22.8448 4.69406 23.4576C4.80727 24.0704 5.06147 24.6485 5.43657 25.1462C5.81166 25.6439 6.29736 26.0475 6.85529 26.3252C7.41322 26.6028 8.02809 26.7469 8.65128 26.746ZM51.0075 2.13064C51.5016 2.14237 51.9716 2.34691 52.317 2.70055C52.6623 3.05419 52.8557 3.52889 52.8557 4.02319C52.8557 4.51749 52.6623 4.99218 52.317 5.34582C51.9716 5.69947 51.5016 5.90401 51.0075 5.91573C50.5133 5.90401 50.0433 5.69947 49.698 5.34582C49.3526 4.99218 49.1593 4.51749 49.1593 4.02319C49.1593 3.52889 49.3526 3.05419 49.698 2.70055C50.0433 2.34691 50.5133 2.14237 51.0075 2.13064ZM36.7172 14.9145C37.2114 14.9262 37.6814 15.1308 38.0267 15.4844C38.3721 15.8381 38.5654 16.3128 38.5654 16.8071C38.5654 17.3014 38.3721 17.7761 38.0267 18.1297C37.6814 18.4834 37.2114 18.6879 36.7172 18.6996C36.2231 18.6879 35.7531 18.4834 35.4077 18.1297C35.0624 17.7761 34.8691 17.3014 34.8691 16.8071C34.8691 16.3128 35.0624 15.8381 35.4077 15.4844C35.7531 15.1308 36.2231 14.9262 36.7172 14.9145ZM22.6848 8.04638C23.179 8.05811 23.6489 8.26265 23.9943 8.61629C24.3396 8.96993 24.533 9.44463 24.533 9.93893C24.533 10.4332 24.3396 10.9079 23.9943 11.2616C23.6489 11.6152 23.179 11.8197 22.6848 11.8315C22.1906 11.8197 21.7207 11.6152 21.3753 11.2616C21.03 10.9079 20.8366 10.4332 20.8366 9.93893C20.8366 9.44463 21.03 8.96993 21.3753 8.61629C21.7207 8.26265 22.1906 8.05811 22.6848 8.04638ZM8.65235 20.8303C9.14651 20.842 9.61648 21.0465 9.96184 21.4002C10.3072 21.7538 10.5005 22.2285 10.5005 22.7228C10.5005 23.2171 10.3072 23.6918 9.96184 24.0454C9.61648 24.3991 9.14651 24.6036 8.65235 24.6154C8.15819 24.6036 7.68821 24.3991 7.34286 24.0454C6.99751 23.6918 6.80417 23.2171 6.80417 22.7228C6.80417 22.2285 6.99751 21.7538 7.34286 21.4002C7.68821 21.0465 8.15819 20.842 8.65235 20.8303Z" fill="url(#paint1_linear_100_3296)"/>
</g>
<defs>
<linearGradient id="paint0_linear_100_3296" x1="29.8291" y1="15.2627" x2="29.8291" y2="58.9999" gradientUnits="userSpaceOnUse">
<stop stop-color="#DD1C23"/>
<stop offset="0.51" stop-color="#CA1821"/>
<stop offset="1" stop-color="#A00F15"/>
</linearGradient>
<linearGradient id="paint1_linear_100_3296" x1="29.8398" y1="0" x2="29.8398" y2="26.746" gradientUnits="userSpaceOnUse">
<stop stop-color="#DD1C23"/>
<stop offset="0.51" stop-color="#CA1821"/>
<stop offset="1" stop-color="#A00F15"/>
</linearGradient>
</defs>
</svg>
